# xmcd
#
# Track frame offsets:
#	150
#	17877
#	34292
#	52608
#	72946
#	89478
#	106988
#	131844
#	149427
#	161740
#	185020
#	196640
#	213545
#	232128
#
# Disc length: 3325 seconds
#
# Revision: 6
# Processed by: cddbd v1.5.2PL0 Copyright (c) Steve Scherf et al.
# Submitted via: EasyCDDAExtractor 8.2.3.1
#
DISCID=ce0cfb0e
DTITLE=Billy Ray Cyrus - Storm In The Heartland
DYEAR=1994
DGENRE=Country
TTITLE0=Storm In The Heartland
TTITLE1=Deja Blue
TTITLE2=Redneck Heaven
TTITLE3=Casualty Of Love
TTITLE4=One Last Thrill
TTITLE5=I Ain't Even Left
TTITLE6=How Much
TTITLE7=Patsy Come Home
TTITLE8=A Heart With Your Name On It
TTITLE9=Only God Could Stop Me Loving You
TTITLE10=Roll Me Over
TTITLE11=Enough Is Enough
TTITLE12=The Past
TTITLE13=Geronimo
EXTD=Mercury Records
EXTT0=
EXTT1=
EXTT2=
EXTT3=
EXTT4=
EXTT5=
EXTT6=
EXTT7=
EXTT8=
EXTT9=
EXTT10=
EXTT11=
EXTT12=
EXTT13=
PLAYORDER=
